<?xml version="1.0" standalone="no"?>
<!DOCTYPE svg PUBLIC "-//W3C//DTD SVG 20010904//EN"
 "http://www.w3.org/TR/2001/REC-SVG-20010904/DTD/svg10.dtd">
<svg version="1.0" xmlns="http://www.w3.org/2000/svg"
 width="100.000000pt" height="100.000000pt" viewBox="0 0 100.000000 100.000000"
 preserveAspectRatio="xMidYMid meet">
<metadata>
Created by potrace 1.14, written by Peter Selinger 2001-2017
</metadata>
<g transform="translate(0.000000,100.000000) scale(0.100000,-0.100000)"
fill="#000000" stroke="none">
<path d="M457 993 c-11 -10 -8 -63 3 -63 6 0 10 7 10 15 0 8 7 15 15 15 8 0
15 -7 15 -15 0 -8 4 -15 10 -15 13 0 9 53 -5 62 -13 10 -40 10 -48 1z"/>
<path d="M532 963 c2 -31 7 -39 26 -41 27 -4 30 14 3 21 -14 3 -17 11 -14 31
3 16 1 26 -6 26 -8 0 -11 -14 -9 -37z"/>
<path d="M368 985 c-3 -3 -2 -20 2 -38 5 -26 11 -32 30 -29 34 4 42 15 34 46
-5 20 -12 26 -33 26 -15 0 -30 -2 -33 -5z m47 -45 c-3 -5 -10 -10 -16 -10 -5
0 -9 5 -9 10 0 6 7 10 16 10 8 0 12 -4 9 -10z"/>
<path d="M301 956 c-7 -8 -9 -25 -6 -39 9 -35 -23 -46 -46 -15 -23 30 -36 16
-15 -17 18 -28 38 -32 55 -11 6 7 25 16 41 20 23 4 30 11 30 29 0 41 -36 61
-59 33z m39 -26 c0 -11 -4 -20 -10 -20 -5 0 -10 2 -10 4 0 2 -3 11 -6 20 -4
11 -1 16 10 16 9 0 16 -8 16 -20z"/>
<path d="M638 945 c-12 -28 -6 -39 28 -49 27 -8 52 38 33 60 -18 22 -48 16
-61 -11z m45 -16 c-5 -18 -26 -23 -24 -6 1 4 1 14 1 22 0 8 6 12 14 9 8 -3 12
-13 9 -25z"/>
<path d="M714 915 c-19 -30 -19 -31 22 -39 39 -9 54 17 28 45 -22 25 -30 24
-50 -6z m46 -16 c0 -5 -7 -9 -15 -9 -8 0 -15 7 -15 15 0 9 6 12 15 9 8 -4 15
-10 15 -15z"/>
<path d="M792 890 c3 -8 -1 -23 -9 -32 -8 -9 -12 -22 -8 -27 10 -17 23 -13 21
7 -1 12 6 17 22 16 27 -1 24 14 -8 35 -20 13 -22 13 -18 1z"/>
<path d="M172 878 c-16 -16 -15 -25 7 -49 16 -18 22 -19 40 -7 24 15 27 34 7
54 -18 17 -38 18 -54 2z m48 -23 c0 -8 -4 -16 -9 -19 -12 -8 -34 21 -27 33 9
14 36 2 36 -14z"/>
<path d="M518 813 c-20 -5 -22 -12 -9 -31 7 -11 9 -11 14 2 9 24 28 20 70 -15
25 -21 41 -45 51 -77 l14 -47 12 27 c10 20 10 34 1 59 -6 18 -10 34 -8 36 4 3
22 -31 32 -62 5 -16 8 -17 15 -5 25 40 0 78 -60 93 -14 4 -19 4 -12 1 6 -3 12
-10 12 -15 0 -5 -12 -1 -27 10 -30 21 -77 32 -105 24z"/>
<path d="M95 752 c-60 -91 -83 -223 -59 -338 13 -66 52 -153 85 -193 33 -40
32 -16 -3 39 -95 153 -98 334 -7 483 34 56 21 64 -16 9z"/>
<path d="M872 783 c2 -5 18 -37 35 -73 76 -151 67 -309 -26 -453 -33 -52 -19
-58 18 -7 74 103 97 278 53 406 -22 64 -61 133 -75 134 -5 0 -7 -3 -5 -7z"/>
<path d="M588 709 c4 -26 6 -29 14 -15 10 18 4 46 -10 46 -5 0 -6 -14 -4 -31z"/>
<path d="M369 681 c-47 -29 -89 -75 -89 -95 0 -7 -16 -39 -36 -72 l-35 -59 35
34 c19 18 44 55 55 81 12 29 41 66 72 94 28 25 49 46 47 46 -2 0 -24 -13 -49
-29z"/>
<path d="M471 676 c-8 -14 -35 -43 -60 -64 -67 -53 -90 -88 -43 -63 18 10 21
8 24 -17 4 -25 5 -23 16 15 7 24 18 47 25 53 7 5 23 18 35 28 17 13 23 25 20
47 l-3 29 -14 -28z"/>
<path d="M533 590 c-5 -19 -6 -46 -2 -60 4 -14 15 -46 23 -72 14 -44 14 -48
-6 -73 l-20 -25 25 11 c31 14 39 39 25 82 -5 18 -15 64 -22 102 -13 70 -13 70
-23 35z"/>
<path d="M455 590 c-3 -10 1 -33 9 -49 9 -17 16 -33 16 -36 0 -3 -18 -12 -40
-21 -22 -9 -37 -20 -34 -25 3 -5 13 -5 24 1 31 16 59 12 85 -15 22 -22 25 -22
25 -5 0 10 -11 27 -25 38 -13 11 -22 22 -19 25 9 8 -16 107 -26 107 -5 0 -11
-9 -15 -20z"/>
<path d="M730 569 c0 -4 7 -26 15 -49 20 -58 19 -120 -5 -182 -18 -48 -18 -52
-2 -64 14 -11 19 -10 30 3 31 41 41 135 20 194 -10 32 -58 111 -58 98z"/>
<path d="M620 523 c0 -6 14 -46 31 -89 17 -42 28 -85 26 -95 -7 -25 0 -24 13
1 8 14 8 31 0 58 -11 40 -70 145 -70 125z"/>
<path d="M220 405 c-10 -12 -10 -19 -1 -28 9 -9 14 -9 21 3 22 34 4 54 -20 25z"/>
<path d="M366 355 c-26 -7 -55 -11 -62 -8 -8 3 -14 0 -14 -6 0 -16 152 -15
168 1 31 31 -7 36 -92 13z"/>
<path d="M435 295 c-47 -21 -91 -24 -119 -10 -33 18 -34 2 -1 -23 31 -24 73
-17 131 22 42 28 37 32 -11 11z"/>
<path d="M191 166 c-10 -11 -5 -20 21 -45 18 -17 39 -29 46 -26 7 3 10 0 7 -5
-3 -6 -2 -10 4 -10 5 0 12 6 14 13 3 6 6 1 7 -13 1 -25 1 -25 16 -5 16 20 16
20 10 -1 -7 -22 16 -40 35 -28 5 3 9 1 9 -4 0 -5 25 -13 55 -19 47 -8 55 -7
53 5 -2 8 3 17 10 19 7 3 12 -4 12 -17 0 -20 3 -21 58 -14 31 3 59 10 60 15 2
5 7 7 12 4 6 -4 96 30 109 41 2 2 -2 10 -9 19 -8 10 -9 15 -1 15 6 0 11 -4 11
-10 0 -5 8 -10 17 -10 13 0 14 3 5 12 -7 7 -12 19 -12 27 0 11 3 11 19 -3 17
-15 20 -15 42 3 13 11 20 23 16 27 -4 5 -12 2 -17 -6 -5 -8 -12 -11 -16 -7 -4
3 -1 13 6 22 15 19 -3 21 -22 2 -7 -7 -34 -28 -60 -45 -27 -18 -48 -38 -48
-45 0 -9 -2 -9 -8 0 -12 18 -88 -10 -84 -31 2 -9 -4 -16 -13 -16 -8 0 -15 7
-15 15 0 8 -4 15 -9 15 -5 0 -7 -9 -4 -20 3 -11 0 -20 -6 -20 -6 0 -10 3 -10
7 3 17 -1 33 -8 32 -5 -1 -10 0 -13 1 -26 10 -40 6 -40 -11 0 -11 -7 -19 -16
-19 -11 0 -15 6 -11 20 6 24 -18 28 -27 4 -3 -8 -10 -13 -15 -9 -6 3 -8 11 -5
18 4 13 -25 33 -55 39 -14 3 -29 13 -80 57 -28 25 -35 26 -50 7z m39 -16 c0
-5 -7 -10 -15 -10 -8 0 -15 5 -15 10 0 6 7 10 15 10 8 0 15 -4 15 -10z m30
-30 c0 -5 -4 -10 -10 -10 -5 0 -10 5 -10 10 0 6 5 10 10 10 6 0 10 -4 10 -10z
m448 -45 c-3 -3 -9 2 -12 12 -6 14 -5 15 5 6 7 -7 10 -15 7 -18z m-365 -10
c-7 -21 -12 -19 -10 4 0 11 5 18 9 15 4 -3 5 -11 1 -19z m257 -20 c0 -8 -4
-15 -10 -15 -5 0 -10 7 -10 15 0 8 5 15 10 15 6 0 10 -7 10 -15z m50 11 c0 -3
-4 -8 -10 -11 -5 -3 -10 -1 -10 4 0 6 5 11 10 11 6 0 10 -2 10 -4z"/>
</g>
</svg>
